<?xml version="1.0" encoding="UTF-8" standalone="no"?>
<svg
   xmlns:dc="http://purl.org/dc/elements/1.1/"
   xmlns:cc="http://creativecommons.org/ns#"
   xmlns:rdf="http://www.w3.org/1999/02/22-rdf-syntax-ns#"
   xmlns:svg="http://www.w3.org/2000/svg"
   xmlns="http://www.w3.org/2000/svg"
   xmlns:sodipodi="http://sodipodi.sourceforge.net/DTD/sodipodi-0.dtd"
   xmlns:inkscape="http://www.inkscape.org/namespaces/inkscape"
   inkscape:export-ydpi="6.8571429"
   inkscape:export-xdpi="6.8571429"
   inkscape:export-filename="C:\Users\tiagoagueda\Dropbox\Documents\tiagoagueda.com\Github\tiagoagueda\envelope.png"
   inkscape:version="1.0 (4035a4fb49, 2020-05-01)"
   height="448"
   width="448"
   sodipodi:docname="envelope.svg"
   id="svg4"
   version="1.1"
   viewBox="0 0 448 448">
  <metadata
     id="metadata10">
    <rdf:RDF>
      <cc:Work
         rdf:about="">
        <dc:format>image/svg+xml</dc:format>
        <dc:type
           rdf:resource="http://purl.org/dc/dcmitype/StillImage" />
        <dc:title></dc:title>
      </cc:Work>
    </rdf:RDF>
  </metadata>
  <defs
     id="defs8" />
  <sodipodi:namedview
     inkscape:current-layer="svg4"
     inkscape:window-maximized="1"
     inkscape:window-y="-8"
     inkscape:window-x="-8"
     inkscape:cy="224"
     inkscape:cx="224"
     inkscape:zoom="1.6601562"
     fit-margin-bottom="0"
     fit-margin-right="0"
     fit-margin-left="0"
     fit-margin-top="0"
     showgrid="false"
     id="namedview6"
     inkscape:window-height="1017"
     inkscape:window-width="1920"
     inkscape:pageshadow="2"
     inkscape:pageopacity="0"
     guidetolerance="10"
     gridtolerance="10"
     objecttolerance="10"
     borderopacity="1"
     bordercolor="#666666"
     pagecolor="#ffffff" />
  <!-- Font Awesome Free 5.15.1 by @fontawesome - https://fontawesome.com License - https://fontawesome.com/license/free (Icons: CC BY 4.0, Fonts: SIL OFL 1.1, Code: MIT License) -->
  <path
     id="path2"
     d="M 400,0 H 48 C 21.49,0 0,21.49 0,48 v 352 c 0,26.51 21.49,48 48,48 h 352 c 26.51,0 48,-21.49 48,-48 V 48 C 448,21.49 426.51,0 400,0 Z M 178.117,230.104 C 87.429,164.287 88.353,164.121 64,145.167 V 120 C 64,106.745 74.745,96 88,96 h 272 c 13.255,0 24,10.745 24,24 v 25.167 c -24.371,18.969 -23.434,19.124 -114.117,84.938 -10.5,7.655 -31.392,26.12 -45.883,25.894 -14.503,0.218 -35.367,-18.227 -45.883,-25.895 z M 384,185.775 V 328 c 0,13.255 -10.745,24 -24,24 H 88 C 74.745,352 64,341.255 64,328 V 185.775 c 13.958,10.794 33.329,25.236 95.303,70.214 14.162,10.341 37.975,32.145 64.694,32.01 26.887,0.134 51.037,-22.041 64.72,-32.025 61.958,-44.965 81.325,-59.406 95.283,-70.199 z" />
</svg>
