<?xml version="1.0" encoding="UTF-8" standalone="no"?>
<svg
   xmlns:dc="http://purl.org/dc/elements/1.1/"
   xmlns:cc="http://creativecommons.org/ns#"
   xmlns:rdf="http://www.w3.org/1999/02/22-rdf-syntax-ns#"
   xmlns:svg="http://www.w3.org/2000/svg"
   xmlns="http://www.w3.org/2000/svg"
   xmlns:sodipodi="http://sodipodi.sourceforge.net/DTD/sodipodi-0.dtd"
   xmlns:inkscape="http://www.inkscape.org/namespaces/inkscape"
   inkscape:export-ydpi="6.8571429"
   inkscape:export-xdpi="6.8571429"
   inkscape:export-filename="C:\Users\tiagoagueda\Dropbox\Documents\tiagoagueda.com\Github\tiagoagueda\twitter.png"
   inkscape:version="1.0 (4035a4fb49, 2020-05-01)"
   height="448"
   width="448"
   sodipodi:docname="twitter.svg"
   id="svg4"
   version="1.1"
   viewBox="0 0 448 448">
  <metadata
     id="metadata10">
    <rdf:RDF>
      <cc:Work
         rdf:about="">
        <dc:format>image/svg+xml</dc:format>
        <dc:type
           rdf:resource="http://purl.org/dc/dcmitype/StillImage" />
        <dc:title></dc:title>
      </cc:Work>
    </rdf:RDF>
  </metadata>
  <defs
     id="defs8" />
  <sodipodi:namedview
     inkscape:current-layer="svg4"
     inkscape:window-maximized="1"
     inkscape:window-y="-8"
     inkscape:window-x="-8"
     inkscape:cy="224"
     inkscape:cx="121.29882"
     inkscape:zoom="1.6601562"
     fit-margin-bottom="0"
     fit-margin-right="0"
     fit-margin-left="0"
     fit-margin-top="0"
     showgrid="false"
     id="namedview6"
     inkscape:window-height="1017"
     inkscape:window-width="1920"
     inkscape:pageshadow="2"
     inkscape:pageopacity="0"
     guidetolerance="10"
     gridtolerance="10"
     objecttolerance="10"
     borderopacity="1"
     bordercolor="#666666"
     pagecolor="#ffffff" />
  <!-- Font Awesome Free 5.15.1 by @fontawesome - https://fontawesome.com License - https://fontawesome.com/license/free (Icons: CC BY 4.0, Fonts: SIL OFL 1.1, Code: MIT License) -->
  <path
     id="path2"
     d="M 400,0 H 48 C 21.5,0 0,21.5 0,48 v 352 c 0,26.5 21.5,48 48,48 h 352 c 26.5,0 48,-21.5 48,-48 V 48 C 448,21.5 426.5,0 400,0 Z m -48.9,158.8 c 0.2,2.8 0.2,5.7 0.2,8.5 0,86.7 -66,186.6 -186.6,186.6 -37.2,0 -71.7,-10.8 -100.7,-29.4 5.3,0.6 10.4,0.8 15.8,0.8 30.7,0 58.9,-10.4 81.4,-28 -28.8,-0.6 -53,-19.5 -61.3,-45.5 10.1,1.5 19.2,1.5 29.6,-1.2 C 99.5,244.5 77,218.1 77,186.2 v -0.8 c 8.7,4.9 18.9,7.9 29.6,8.3 A 65.447,65.447 0 0 1 77.4,139.1 c 0,-12.2 3.2,-23.4 8.9,-33.1 32.3,39.8 80.8,65.8 135.2,68.6 -9.3,-44.5 24,-80.6 64,-80.6 18.9,0 35.9,7.9 47.9,20.7 14.8,-2.8 29,-8.3 41.6,-15.8 -4.9,15.2 -15.2,28 -28.8,36.1 13.2,-1.4 26,-5.1 37.8,-10.2 -8.9,13.1 -20.1,24.7 -32.9,34 z" />
</svg>
